<svg xmlns="http://www.w3.org/2000/svg" width="256" height="256" viewBox="0 0 256 256">
  <rect width="256" height="256" rx="56" fill="#1a1a2e"/>
  <g transform="translate(128 128) scale(0.131619) translate(-1059.65420718 -1029.668170525)">
    <g transform="scale(0.533417)">
      <path fill="#3CAEE9" d="M1944.44 1037.7C2136.87 1024.32 2304.02 1168.78 2318.67 1361.12C2333.32 1553.46 2189.97 1721.56 1997.73 1737.47C1803.69 1753.53 1633.67 1608.55 1618.89 1414.41C1604.1 1220.26 1750.21 1051.21 1944.44 1037.7ZM2003.33 1601.36C2120.62 1582.5 2200.53 1472.29 2181.99 1354.95C2163.46 1237.61 2053.47 1157.39 1936.08 1175.6C1818.22 1193.88 1737.62 1304.4 1756.23 1422.21C1774.84 1540.01 1885.58 1620.3 2003.33 1601.36Z"/>
      <path fill="#3CAEE9" d="M874.509 1063.76L876.808 1063.7C926.828 1062.49 978.603 1064.45 1028.28 1063.49C1159.2 1060.97 1286.81 1066.88 1388.06 1162.83C1443.26 1215.15 1471.5 1299.55 1473 1374.98C1474.99 1475.19 1447.61 1545.76 1377.9 1617.91C1278.36 1712.52 1142.83 1716.66 1015.45 1716.57L875.297 1716.36C874.045 1669.37 875.184 1617.46 875.207 1570.14L874.592 1319.54L873.996 1154.47C873.89 1127.94 872.495 1088.97 874.509 1063.76ZM1008.99 1587.75C1034.84 1589.63 1059.43 1589.07 1085.09 1589.43C1158.59 1590.48 1217.61 1582.24 1275.28 1532.75C1290.15 1516.28 1303.54 1500.93 1312.65 1480.78C1349.18 1399.92 1338.64 1302.35 1270.21 1242.04C1197.61 1178.05 1099.44 1187.83 1010.24 1187.88C1005.79 1244.19 1008.56 1337 1008.39 1395.95C1008.23 1450.86 1005.47 1536.2 1008.99 1587.75Z"/>
      <path fill="#3CAEE9" d="M2619.32 2184.74C2779.14 2183.04 2948.7 2183.53 3108.52 2184.96C3107.68 2222.42 3107.99 2260.94 3107.86 2298.48C3091.77 2325.57 3034.74 2391.35 3012.57 2417.76L2848.43 2613.89C2831.57 2633.98 2815.56 2654.5 2798.55 2674.44C2790.97 2683.32 2779.42 2694.06 2783.68 2706.1C2790.75 2710 3082.9 2709.14 3115.07 2709.35C3115.14 2727.55 3116.9 2815.36 3113.93 2827.4C3108.14 2832.05 3109.88 2830.56 3100.5 2830.6L2604.9 2830.81C2602.48 2802.33 2603.72 2740.3 2603.69 2709.76C2615.89 2691.69 2662.35 2642.53 2679.37 2622.28L2864.18 2399.17C2888.56 2369.41 2922.22 2333.44 2943.8 2303.32C2909.25 2301.26 2861.45 2302.79 2826.13 2302.86L2616.19 2302.87C2615.67 2285.57 2613.63 2194.5 2619.32 2184.74Z"/>
      <path fill="#3CAEE9" d="M1174.45 2182.56C1214.63 2179.06 1299.58 2179.98 1339.57 2183.43C1381.76 2247.03 1418.53 2315.16 1460.3 2379.11C1468.84 2392.17 1477.33 2405.85 1487.17 2417.94C1534.57 2340.28 1579.11 2261.23 1625.95 2184.21C1674.86 2181.94 1735.67 2183.35 1785.37 2183.55C1719.84 2270.11 1663.43 2367.36 1599.86 2455.72C1591.4 2467.48 1583.09 2480.34 1575.81 2492.84C1594.49 2522.99 1624.4 2563.9 1645.43 2594.04L1813.9 2831.09L1772.52 2831.17L1643.68 2830.88C1594.35 2757.16 1552.46 2677.93 1505.74 2602.51C1497.67 2589.49 1490.17 2576.55 1481.08 2564.18C1459.09 2588.15 1435.21 2631.35 1418 2659.44C1384.33 2714.43 1352.68 2774.95 1317.37 2828.7C1267.88 2828.78 1218.4 2828.52 1168.92 2827.93C1213.84 2753.89 1263.28 2682.06 1311.12 2609.86C1336.47 2571.61 1363.11 2534.15 1386.89 2494.89C1345.08 2430.45 1301.78 2366.98 1257.03 2304.55C1243.25 2284.98 1180.9 2199.04 1174.45 2182.56Z"/>
      <path fill="#3CAEE9" d="M2754.2 1048.87C2822.79 1044.41 2907.6 1043.26 2967.1 1084.61C2980.44 1093.88 3026.38 1124.96 3031.43 1138.25C3029.97 1140.05 3029.53 1140.68 3027.66 1142.48C3017.12 1152.64 2936.32 1220.54 2928.03 1220.78C2921.73 1220.97 2902.74 1199.4 2896.02 1195.6C2869.83 1180.79 2831.25 1173.59 2801.29 1174.05C2753.25 1174.78 2702.45 1188.86 2668.55 1224.51C2618.07 1277.59 2603.89 1325.71 2605.88 1397.11C2607.6 1458.62 2631.05 1518.97 2676.8 1561.58C2710.77 1593.22 2765.48 1603.05 2810.39 1601.11C2867.44 1598.65 2895.85 1580.89 2932.92 1540.27C2944.41 1546.65 2961.04 1558.68 2972.33 1566.34C2987.2 1579.55 3061.1 1613.23 3041.51 1632.92C2963.9 1710.94 2895.2 1731.61 2789.33 1729.56C2512.41 1724.19 2374.64 1411.38 2522.72 1188.74C2579.16 1103.89 2660.49 1069.83 2754.2 1048.87Z"/>
      <path fill="#3CAEE9" d="M2345.95 2184.03C2394.26 2181.77 2454.32 2183.02 2503.11 2183.84L2346.91 2422.99C2320.93 2463.35 2281.13 2509.54 2263.32 2553.08C2255.48 2572.26 2259.91 2788.22 2260 2829.55C2219.32 2830.89 2170.31 2829.69 2129.45 2829.27C2127.84 2739.23 2130.93 2648.53 2128.92 2557.74L2014.21 2380.93C1998.52 2357.13 1891.4 2202.46 1887.46 2184.21C1933.27 2182.05 1999.59 2182.86 2046.08 2183.86C2067.61 2215.88 2088.34 2254.35 2107.36 2288.12L2192.16 2438.25C2208.46 2417.3 2249.95 2345.42 2264.9 2320.34C2286.76 2283.65 2329.62 2220.1 2345.95 2184.03Z"/>
      <path fill="#3CAEE9" d="M936.643 2675.88C980.096 2674.1 1016.9 2707.6 1019.19 2751.03C1021.49 2794.46 988.432 2831.66 945.035 2834.48C916.495 2836.33 889.163 2822.7 873.478 2798.78C857.793 2774.86 856.18 2744.36 869.253 2718.93C882.326 2693.49 908.067 2677.04 936.643 2675.88Z"/>
    </g>
  </g>
</svg>
